<svg xmlns="http://www.w3.org/2000/svg" xml:space="preserve" width="1500" height="1500" data-id="lg_hr8XYxBOvVAQ1a8cyu" data-version="1" viewBox="0 0 1500 1500"><path fill="#fff" stroke="transparent" d="M0 0h1500v1500H0z"/><g data-padding="20"><g transform="translate(-566.726 -577.554)scale(1.71604)"><g fill="#5ebc67" stroke="#5ebc67" stroke-width="5" transform="translate(439.35 394.26)scale(1.86)"><path d="M196.177 144.756v110.302"/>undefined
        undefined</g><path fill="#5ebc67" stroke="#5ebc67" stroke-width="3.02" d="M712.31 819.163c-5.606-7.635-12.675-13.732-20.37-19.168-4.092-2.88-8.51-5.264-12.45-8.387a417 417 0 0 0-12.767-9.712c-11.712-8.604-23.8-16.67-35.666-25.06-4.95-3.503-7.18-8.64-7.511-14.596-.142-2.579 1.08-3.563 3.76-3.316 2.416.227 4.808.601 7.124 1.338 4.15 1.326 8.38 2.196 12.76 2.223 2.144.012 4.188-.499 5.952-1.652a36.5 36.5 0 0 0 10.33-10.096c.065-.085-.053-.293-.126-.607-2.884 0-5.807.045-8.727-.024-1.03-.024-1.698.356-2.383 1.07-1.897 1.977-4.274 3.176-6.89 3.877-5.305 1.413-10.255-.043-15.667-1.99 4.75-.469 9.402.954 13.43-3.036-3.445 0-6.34-.108-9.226.027-2.866.14-5.215 2.353-8.25 2.108 3.31 2.18 6.487 4.328 9.374 6.977-1.586-.194-3.057-.858-4.567-.943-2.274-.133-3.618-1.495-4.97-2.99-.333-.377-.623-.785-.952-1.162-2.87-3.265-5.406-6.828-8.788-9.622-.613-.504-1.126-1.332-2.286-.764 3.053 3.796 5.17 8.127 7.62 12.261l-.324.43c-2.968-.203-5.312-1.36-7.19-3.444a13.6 13.6 0 0 1-1.224-1.585c-1.292-1.945-2.358-4.077-3.78-5.853-1.985-2.485-3.81-5.074-5.69-7.622-.64-.867-1.46-1.33-2.416-1.677-2.972-1.084-5.962-2.132-8.906-3.282-4.068-1.595-8.215-1.133-12.364-.58-2.863.38-4.325 2.32-4.01 5.55.24 2.498.437 5.038.045 7.514-.408 2.58.027 5.03.767 7.408 1.356 4.37 2.899 8.683 4.412 13.008 1.712 4.892 3.56 9.778 6.505 14.04 6.103 8.833 13.077 16.984 21.26 23.954 9.607 8.19 19.489 16.055 29.174 24.157 5.64 4.724 11.247 9.516 15.952 15.224 2.099 2.54 3.962 5.191 3.55 8.8.798.06 1.457.148 2.118.154q8.033.121 16.067.21c2.407.026 2.54-.173 2.225-2.58-.133-1.012-.51-1.927-.945-2.833-.833-1.746-1.966-3.289-3.174-4.796-4.288-5.333-9.697-9.455-14.988-13.67-11.564-9.224-23.293-18.236-34.893-27.414-4.391-3.467-8.967-6.738-12.853-10.802-4.047-4.235-7.82-8.707-11.543-13.234-2.917-3.543-4.916-7.414-6.248-11.826-1.347-4.464-.755-8.59.867-12.7 1.09-2.754 3.152-3.627 6.02-2.766a190 190 0 0 1 7.138 2.301c2.41.837 4.783 1.78 7.175 2.673-.72.332-1.365.33-2.014.332-4.24.027-5.083.75-6.387 4.78-.653 2.015-.2 3.785.619 5.546.67 1.443 1.428 2.838 2.222 4.207 3.428 5.9 7.51 11.352 12.875 15.562 17.419 13.671 35.693 26.201 53.29 39.637 5.053 3.86 10.124 7.69 14.509 12.328 4.14 4.38 8.117 8.882 8.395 15.716l18.223.003c2.328 0 2.446-.14 2.066-2.416-.704-4.225-2.806-7.828-5.28-11.21m-156.885-2.694c-2.622-5.12-5.442-10.135-7.964-15.3-4.69-9.618-8.628-19.397-9.628-30.296-.957-10.443.187-20.488 3.06-30.457.8-2.775 1.836-5.47 2.914-8.133-1.296-.688-2.057.082-2.89.601-3.9 2.437-7.463 5.38-11.362 7.786a30.1 30.1 0 0 0-9.703 9.53c-1.51 2.353-3.612 4.292-4.793 6.874.99.058 1.604-.564 2.208-1.153l.239-.227.02-.018.294-.254c4.6-3.62 8.74-7.77 13.164-11.587.64-.553 1.18-1.344 2.12-1.417.504.943-.215 1.217-.59 1.56-5.595 5.05-10.485 10.762-15.498 16.367-3.452 3.863-6.922 7.752-11.053 10.9a36.8 36.8 0 0 0-7.767 8.032c-3.793 5.313-7.768 10.501-11.715 15.807.35.064.559.172.655.106a27 27 0 0 0 1.634-1.154c8.713-6.493 16.033-14.366 22.668-22.91 3.123-4.016 6.212-8.057 9.317-12.086l.453.725q-3.558 5.726-7.121 11.45c-6.777 10.868-14.252 21.196-23.13 30.48a151 151 0 0 1-4.636 4.575v14.02c.888-1.393 1.755-2.797 2.836-4.045 4.72-5.43 9.099-11.116 12.868-17.25 6.946-11.289 13.05-23.043 18.978-34.884 2.195-4.39 4.587-8.664 7.453-12.66l.507.36c-.84 1.727-1.766 3.418-2.497 5.185-4.128 10.008-8.43 19.944-11.926 30.206a160 160 0 0 1-6.59 16.468 16 16 0 0 0-1.335 4.53c-.193 1.323-.365 2.645-.576 3.965-1.088 6.76-3.52 12.86-8.674 17.616-.084.075-.027.311-.048.7 6.197 0 12.376-.03 18.558.03 1.075.007 1.685-.507 2.295-1.234 2.513-3.014 3.618-6.539 3.826-10.392.236-4.277-.196-8.526-.72-12.76-.672-5.472-1.31-10.836.128-16.377 1.71-6.61 2.093-13.524 4.14-20.083 2.202-7.073 4.045-14.279 7.074-21.074 1.34-3.005 2.826-5.943 4.823-8.673.682 1.12-.064 1.924-.381 2.712-2.85 6.985-4.56 14.287-5.88 21.68-1.33 7.45-.963 15.013-1.145 22.533-.015.495.076 1.005.197 1.485.888 3.564 1.757 7.128 2.709 10.673 1.624 6.034 3.965 11.854 5.43 17.933 1.114 4.617 1.839 9.244-1.474 13.4-.048.063.088.268.193.567 5.802 0 11.657-.006 17.51 0 2.543 0 2.975-.338 3.597-2.754a8.3 8.3 0 0 0 .184-3.225c-.407-3.023-1.585-5.784-2.956-8.453"/><path fill="#5ebc67" stroke="#5ebc67" stroke-width="3.02" d="m514.995 757.117.012-.006q.012-.018.018-.04l-.072-.003Zm-.048.29a.15.15 0 0 0 .08-.046q.016-.024.019-.048l.013-.024q.003-.033-.013-.073v-.006a.3.3 0 0 0-.05-.093l-.336.178c.097.042.208.14.287.112m243.13 74.225c-.404-2.482-.932-4.97-2.02-7.203-2.16-4.4-2.156-9.01-1.827-13.698.296-4.34.414-8.686.32-13.035-.033-1.434-.486-2.506-1.374-3.602-3.627-4.476-7.127-9.057-10.757-13.536-1.658-2.042-3.107-4.273-5.055-6.13-.514.658-.296 1.256-.348 1.802-.34 3.588-1.875 4.878-5.433 4.582-2.117-.179-4.05-.97-5.928-1.855-4.288-2.035-8.498-4.237-12.814-6.2-8.872-4.037-18.08-7.233-27.3-10.364-3.905-1.326-6.808-3.422-7.97-7.517a3.14 3.14 0 0 0-1.498-1.912c-.607-.356-1.353-.61-1.537-1.033l10.195-21.593c-3.304 0-6.142.082-8.972-.033-1.356-.06-2.078.38-2.73 1.57-2.694 4.884-5.5 9.7-8.26 14.542-1.296 2.277-1.29 2.283-3.77 1.812-2.213-.423-4.432-.794-6.628-1.305-1.41-.332-2.811-.326-4.23-.356-1.35-.033-2.384.516-3.308 1.65 1.818 1.596 3.82 2.78 5.774 3.985 5.098 3.132 10.072 6.44 15.69 8.716 4.29 1.736 8.706 3.47 11.802 7.27 4.508 5.532 10.14 9.947 15.093 15.04 1.882 1.93 4.06 3.414 6.379 4.79 11.137 6.576 20.898 14.685 28.05 25.62 3.714 5.672 7.16 11.48 7.879 18.434.11 1.033.836.864 1.473.873 5.935.103 11.872.148 17.81.314 1.404.033 1.482-.486 1.295-1.628m-122.331-5.804c-1.187-2.03-2.64-3.863-4.22-5.596-5.873-6.448-12.508-12.083-19.08-17.788-8.851-7.674-17.727-15.306-25.186-24.423-4.666-5.708-9.06-11.54-11.963-18.4-3.023-7.134-5.656-14.424-8.564-21.603-.471-1.163-.65-2.4-.728-3.666a290 290 0 0 0-.743-8.99c-.405-4.389.435-8.629 2.999-12.383.214-.314.628-.6.078-1.256-1.733 1.051-3.454 2.193-5.263 3.171-3.262 1.76-4.99 4.54-5.654 8.085a18 18 0 0 0-.2 1.488c-.386 4.437.149 8.846.294 13.267.13 4.101 1.193 7.886 2.688 11.633 2.068 5.183 3.968 10.434 6.118 15.587 1.993 4.768 4.25 9.42 7.227 13.69 5.717 8.202 12.44 15.52 19.542 22.51 5.847 5.744 11.905 11.283 17.377 17.408 2.012 2.243 3.954 4.557 5.325 7.25.872 1.698 1.66 3.48.525 6.05l17.978.003c2.87 0 3.473-.782 2.616-3.555a12 12 0 0 0-1.166-2.482"/><path fill="#5ebc67" stroke="#5ebc67" stroke-width="3.02" d="M594.113 820.966c-4.19-5.98-9.356-11.135-14.12-16.629-6.021-6.955-11.955-13.98-16.494-22.037-3.847-6.849-6.78-14.115-9.26-21.544-1.24-3.706-2.645-7.384-3.18-11.292-1.035-7.535-.168-15.015.532-22.51.112-1.227 1.163-2.163.967-3.444-.502-.036-.746.181-1.01.387-3.27 2.645-5.076 6.145-5.837 10.198-.54 2.872-.91 5.777-1.401 8.66-.873 5.06-1.178 10.17-.4 15.234a97.9 97.9 0 0 0 8.998 28.51c4.406 8.972 10.202 17.023 15.982 25.101 2.57 3.597 5.282 7.107 7.203 11.12 1.256 2.615 1.984 5.303.347 8.661 6.496 0 12.515.007 18.53-.003 2.027-.003 2.417-.416 2.483-2.46.04-1.2-.254-2.33-.716-3.413a26 26 0 0 0-2.624-4.54m94.043-64.99c2.334 1.193 4.554.658 6.653-.559 2.3-1.334 4.675-2.642 5.466-5.526 1.407-5.134 2.824-10.268 4.306-15.384.27-.92.112-1.546-.422-2.29-.891-1.243-1.88-1.98-3.54-1.757a15 15 0 0 1-3.75-.003c-1.486-.166-2.178.353-2.7 1.803-1.994 5.557-4.171 11.05-6.228 16.58-.77 2.066-1.73 3.971-3.67 5.53 1.309.915 2.7 1.005 3.885 1.606m11.458 2.625c-1.024-.04-2.033-.145-3.452.253 5.366 1.68 10.17 3.712 15.079 5.466 2.195.786 4.454 1.393 6.849 1.293 3.283-.136 5.08-1.607 5.762-4.826.12-.574.12-1.172.278-1.734.238-.887.036-1.6-.538-2.316-3.3-4.092-6.56-8.214-10.026-12.57-.504.847-.538 1.51-.655 2.16-.441 2.465-.828 4.94-1.71 7.297-1.184 3.146-3.512 4.79-6.825 4.986-1.58.1-3.177.06-4.762-.01M532.48 733.304c2.555-1.06 4.44-2.365 6.46-3.52-3.36-1.324-4.766.862-6.46 3.52"/><path d="M851.28 756.267v-73.64h31.56v10.52h-19.99v19.47h15.88v10.52h-15.88v22.61h19.99v10.52Zm38.19 0v-73.64h17.15q8.94 0 13.05 4.16 4.1 4.15 4.1 12.78v4.52q0 11.47-7.58 14.52v.21q4.21 1.26 5.95 5.16 1.73 3.89 1.73 10.41v12.94q0 3.16.21 5.1.21 1.95 1.06 3.84h-11.79q-.63-1.79-.84-3.36-.21-1.58-.21-5.68v-13.47q0-5.05-1.63-7.05t-5.63-2h-3.99v31.56Zm11.58-42.08h4.2q3.48 0 5.21-1.78 1.74-1.79 1.74-6v-5.68q0-4-1.42-5.79t-4.47-1.79h-5.26Zm45.85 43.13q-8.41 0-12.73-4.78-4.31-4.79-4.31-13.73v-4.21h10.94v5.05q0 7.15 6 7.15 2.94 0 4.47-1.73 1.52-1.74 1.52-5.63 0-4.63-2.1-8.15-2.1-3.53-7.79-8.47-7.15-6.31-9.99-11.41-2.84-5.11-2.84-11.52 0-8.73 4.42-13.52t12.83-4.79q8.31 0 12.57 4.79t4.26 13.73v3.05h-10.94v-3.79q0-3.79-1.47-5.52-1.47-1.74-4.31-1.74-5.79 0-5.79 7.05 0 4 2.16 7.47t7.84 8.42q7.25 6.31 9.99 11.46 2.73 5.16 2.73 12.1 0 9.05-4.47 13.89-4.47 4.83-12.99 4.83m24.09-1.05v-73.64h14.52l11.26 44.08h.21v-44.08h10.31v73.64H995.4l-13.89-53.75h-.21v53.75Zm-104.67 97.78q-8.42 0-12.73-4.78-4.31-4.79-4.31-13.73v-4.21h10.94v5.05q0 7.15 6 7.15 2.94 0 4.47-1.73 1.52-1.74 1.52-5.63 0-4.63-2.1-8.15-2.11-3.53-7.79-8.47-7.15-6.31-9.99-11.42-2.84-5.1-2.84-11.52 0-8.73 4.42-13.51 4.42-4.79 12.83-4.79 8.31 0 12.57 4.79 4.26 4.78 4.26 13.73v3.05h-10.94v-3.79q0-3.79-1.47-5.52-1.47-1.74-4.31-1.74-5.79 0-5.79 7.05 0 4 2.16 7.47 2.15 3.47 7.83 8.41 7.26 6.31 10 11.47 2.73 5.15 2.73 12.1 0 9.04-4.47 13.88t-12.99 4.84m24.09-1.05v-73.64h11.57v73.64Zm20.2 0v-73.64h17.15q8.94 0 13.04 4.16 4.1 4.15 4.1 12.78v4.52q0 11.47-7.57 14.52v.21q4.21 1.26 5.94 5.15 1.74 3.9 1.74 10.42v12.94q0 3.15.21 5.1t1.05 3.84h-11.78q-.63-1.79-.84-3.37-.21-1.57-.21-5.68v-13.46q0-5.05-1.63-7.05t-5.63-2h-4v31.56Zm11.57-42.08h4.21q3.47 0 5.21-1.79 1.73-1.79 1.73-5.99v-5.68q0-4-1.42-5.79t-4.47-1.79h-5.26Zm27.77 42.08 12-73.64h15.67l11.99 73.64h-11.57l-2.1-14.62v.21h-13.15l-2.11 14.41Zm14.2-24.41h10.42l-5.16-36.39h-.21Zm31.04 24.41v-73.64h11.57v29.98h12.41v-29.98h11.57v73.64h-11.57v-33.14h-12.41v33.14Z"/><rect width="200.826" height="217.638" x="264.477" y="263.008" fill="none" rx="0" ry="0" transform="translate(582.99 403.08)"/></g><path fill="transparent" stroke="transparent" stroke-width="1.779" d="M250 554.27h1000v391.46H250z"/></g></svg>